<?xml version="1.0" standalone="no"?>
<!DOCTYPE svg PUBLIC "-//W3C//DTD SVG 20010904//EN"
 "http://www.w3.org/TR/2001/REC-SVG-20010904/DTD/svg10.dtd">
<svg version="1.0" xmlns="http://www.w3.org/2000/svg"
 width="500.000000pt" height="500.000000pt" viewBox="0 0 500.000000 500.000000"
 preserveAspectRatio="xMidYMid meet">

<g transform="translate(0.000000,500.000000) scale(0.100000,-0.100000)"
fill="#000000" stroke="none">
<path d="M2310 4215 c-8 -2 -59 -11 -113 -20 -54 -10 -96 -19 -94 -21 2 -2 48
3 103 10 231 34 416 30 615 -14 96 -22 253 -69 247 -75 -2 -3 -26 3 -53 11
-337 104 -763 94 -1100 -26 -293 -105 -572 -311 -750 -555 -64 -89 -83 -111
-67 -79 27 52 143 198 231 289 69 71 79 84 36 46 -256 -225 -438 -546 -516
-911 -20 -90 -23 -134 -23 -310 0 -174 4 -221 23 -309 65 -305 199 -580 400
-824 225 -272 568 -474 931 -548 101 -21 141 -23 335 -22 163 0 237 5 285 16
36 9 49 14 30 11 -19 -3 -125 -7 -235 -10 -217 -6 -332 5 -486 47 -91 25 -101
38 -13 15 353 -89 796 -44 1142 115 223 102 490 324 619 514 22 33 43 50 27
23 -16 -28 -135 -177 -194 -243 -34 -38 -17 -23 39 34 260 268 415 608 452
997 14 141 2 326 -32 479 -10 49 -19 93 -19 98 0 14 112 1 190 -22 105 -30
169 -61 200 -99 31 -38 63 -39 53 -2 -15 57 -163 119 -354 147 l-105 16 -28
83 c-37 108 -130 293 -203 402 -246 369 -610 617 -1051 713 -77 17 -140 22
-302 24 -113 2 -212 2 -220 0z m476 -105 c55 -11 135 -32 179 -46 123 -38 368
-165 470 -241 231 -173 425 -421 530 -677 67 -162 90 -142 -179 -149 -313 -8
-557 -40 -796 -107 -136 -39 -194 -61 -311 -121 -156 -80 -279 -210 -279 -296
0 -40 -1 -40 -130 -106 -58 -29 -143 -77 -189 -107 -62 -40 -121 -66 -227
-102 -329 -110 -532 -140 -580 -87 -16 18 -16 22 -2 53 68 142 679 454 951
485 115 14 184 30 198 47 34 41 -58 40 -221 -3 -82 -21 -108 -24 -190 -18
-180 12 -312 49 -360 100 -37 39 -37 100 0 162 57 99 253 246 485 363 277 141
585 219 750 191 85 -15 167 -46 204 -77 29 -24 71 -33 71 -14 0 12 -39 48 -70
65 -210 109 -593 58 -976 -130 -210 -103 -428 -259 -499 -354 -38 -53 -61
-124 -52 -162 21 -84 148 -146 337 -164 126 -12 125 -12 -10 -66 -342 -135
-659 -336 -684 -433 -8 -34 14 -73 50 -86 75 -29 304 0 516 65 62 19 114 33
115 31 2 -2 -23 -24 -54 -49 -82 -65 -143 -123 -143 -136 0 -26 36 -7 103 54
138 125 219 179 350 230 67 27 155 63 196 82 83 37 81 37 81 23 0 -24 74 -125
138 -188 37 -37 156 -147 264 -245 285 -257 333 -317 279 -347 -60 -32 -350
14 -408 65 l-28 23 21 29 c34 47 100 75 164 70 30 -3 66 -9 79 -13 18 -5 23
-4 19 7 -5 16 -69 37 -115 38 -69 2 -178 -52 -204 -100 -17 -34 -2 -67 40 -89
67 -34 182 -61 287 -67 121 -7 168 0 200 32 49 49 6 102 -311 387 -232 209
-291 269 -340 343 -54 81 -56 79 85 148 68 34 122 67 120 72 -9 18 -113 8
-187 -18 -73 -25 -73 -25 -73 -4 0 74 119 199 258 270 262 135 640 212 1095
224 181 5 221 4 228 -8 6 -10 9 -10 9 -1 0 6 7 12 15 12 53 0 82 -489 41 -695
-24 -123 -53 -226 -87 -313 -32 -81 -107 -232 -114 -232 -3 0 13 37 36 81 44
88 114 289 123 354 4 22 -5 0 -19 -49 -121 -428 -429 -805 -821 -1004 -384
-196 -790 -231 -1185 -101 -466 153 -846 522 -1020 988 -15 42 -28 70 -29 63
0 -21 69 -200 107 -276 19 -38 58 -105 87 -150 53 -81 73 -107 175 -227 42
-50 35 -45 -34 26 -274 282 -407 605 -422 1018 -8 226 15 390 83 592 28 86
109 265 118 265 4 0 -7 -26 -22 -57 -47 -95 -123 -316 -121 -354 0 -8 13 31
30 86 42 144 162 377 258 505 261 348 674 585 1117 639 111 14 314 5 430 -19z
m-1141 -198 c-6 -5 -40 -29 -76 -54 -93 -66 -250 -208 -315 -286 -206 -247
-336 -537 -387 -862 -3 -17 -5 -12 -6 13 -1 51 34 222 65 317 109 327 351 638
650 834 64 43 91 57 69 38z m2176 -432 c89 -117 166 -259 210 -386 33 -95 35
-105 15 -98 -8 3 -28 46 -46 96 -67 192 -187 396 -318 540 l-66 73 63 -60 c35
-33 98 -107 142 -165z m-2741 -80 c-6 -11 -13 -20 -16 -20 -2 0 0 9 6 20 6 11
13 20 16 20 2 0 0 -9 -6 -20z m50 -40 c-6 -11 -13 -20 -16 -20 -2 0 0 9 6 20
6 11 13 20 16 20 2 0 0 -9 -6 -20z m-273 -767 c-2 -16 -4 -3 -4 27 0 30 2 43
4 28 2 -16 2 -40 0 -55z m1673 -163 c-58 -30 -80 -36 -80 -21 0 9 102 49 125
50 6 0 -15 -13 -45 -29z m1616 -100 c-9 -108 -55 -285 -104 -398 -128 -295
-324 -534 -587 -717 -82 -56 -154 -100 -95 -58 387 280 587 536 710 911 21 66
47 169 57 231 10 61 20 111 22 111 2 0 1 -36 -3 -80z m-1746 51 c0 -5 -34 -22
-75 -39 -41 -17 -75 -29 -75 -26 0 4 132 73 143 74 4 0 7 -4 7 -9z m1480 -681
c-6 -11 -13 -20 -16 -20 -2 0 0 9 6 20 6 11 13 20 16 20 2 0 0 -9 -6 -20z m50
-40 c-6 -11 -13 -20 -16 -20 -2 0 0 9 6 20 6 11 13 20 16 20 2 0 0 -9 -6 -20z"/>
<path d="M4041 2924 c0 -11 3 -14 6 -6 3 7 2 16 -1 19 -3 4 -6 -2 -5 -13z"/>
<path d="M4051 2884 c0 -11 3 -14 6 -6 3 7 2 16 -1 19 -3 4 -6 -2 -5 -13z"/>
<path d="M941 2864 c0 -11 3 -14 6 -6 3 7 2 16 -1 19 -3 4 -6 -2 -5 -13z"/>
<path d="M4072 2280 c0 -14 2 -19 5 -12 2 6 2 18 0 25 -3 6 -5 1 -5 -13z"/>
<path d="M4061 2224 c0 -11 3 -14 6 -6 3 7 2 16 -1 19 -3 4 -6 -2 -5 -13z"/>
<path d="M951 2164 c0 -11 3 -14 6 -6 3 7 2 16 -1 19 -3 4 -6 -2 -5 -13z"/>
<path d="M961 2124 c0 -11 3 -14 6 -6 3 7 2 16 -1 19 -3 4 -6 -2 -5 -13z"/>
<path d="M2025 4155 c-39 -14 -40 -14 -5 -8 41 7 82 22 60 22 -8 0 -33 -7 -55
-14z"/>
<path d="M1935 4125 c-25 -12 -26 -14 -5 -9 28 7 60 23 45 23 -5 0 -23 -6 -40
-14z"/>
<path d="M3584 1248 l-19 -23 23 19 c21 18 27 26 19 26 -2 0 -12 -10 -23 -22z"/>
<path d="M2918 903 c7 -3 16 -2 19 1 4 3 -2 6 -13 5 -11 0 -14 -3 -6 -6z"/>
<path d="M2878 893 c7 -3 16 -2 19 1 4 3 -2 6 -13 5 -11 0 -14 -3 -6 -6z"/>
</g>
</svg>
